HIERARCHY
ROOT hip
{
  OFFSET 0 0 0
  CHANNELS 6 Xposition Yposition Zposition Zrotation Yrotation Xrotation
  JOINT abdomen
  {
    OFFSET 0 20.6881 -0.73152
    CHANNELS 3 Zrotation Xrotation Yrotation
    JOINT chest
    {
      OFFSET 0 11.7043 -0.48768
      CHANNELS 3 Zrotation Xrotation Yrotation
      JOINT neck
      {
        OFFSET 0 22.1894 -2.19456
        CHANNELS 3 Zrotation Xrotation Yrotation
        JOINT head
        {
          OFFSET -0.24384 7.07133 1.2192
          CHANNELS 3 Zrotation Xrotation Yrotation
          JOINT leftEye
          {
            OFFSET 4.14528 8.04674 8.04672
            CHANNELS 3 Zrotation Xrotation Yrotation
            End Site
            {
              OFFSET 1 0 0
            }
          }
          JOINT rightEye
          {
            OFFSET -3.6576 8.04674 8.04672
            CHANNELS 3 Zrotation Xrotation Yrotation
            End Site
            {
              OFFSET 1 0 0
            }
          }
        }
      }
      JOINT rCollar
      {
        OFFSET -2.68224 19.2634 -4.8768
        CHANNELS 3 Zrotation Xrotation Yrotation
        JOINT rShldr
        {
          OFFSET -8.77824 -1.95073 1.46304
          CHANNELS 3 Zrotation Xrotation Yrotation
          JOINT rForeArm
          {
            OFFSET -28.1742 -1.7115 0.48768
            CHANNELS 3 Zrotation Xrotation Yrotation
            JOINT rHand
            {
              OFFSET -22.5879 0.773209 7.07136
              CHANNELS 3 Zrotation Xrotation Yrotation
              JOINT rThumb1
              {
                OFFSET -1.2192 -0.487915 3.41376
                CHANNELS 3 Zrotation Xrotation Yrotation
                JOINT rThumb2
                {
                  OFFSET -3.37035 -0.52449 3.41376
                  CHANNELS 3 Zrotation Xrotation Yrotation
                  End Site
                  {
                    OFFSET -1.78271 -1.18214 1.43049
                  }
                }
              }
              JOINT rIndex1
              {
                OFFSET -7.75947 0.938293 5.60832
                CHANNELS 3 Zrotation Xrotation Yrotation
                JOINT rIndex2
                {
                  OFFSET -2.54057 -0.884171 1.56538
                  CHANNELS 3 Zrotation Xrotation Yrotation
                  End Site
                  {
                    OFFSET -1.62519 -0.234802 1.16502
                  }
                }
              }
              JOINT rMid1
              {
                OFFSET -8.24714 1.18213 3.41376
                CHANNELS 3 Zrotation Xrotation Yrotation
                JOINT rMid2
                {
                  OFFSET -3.10165 -0.590103 1.0647
                  CHANNELS 3 Zrotation Xrotation Yrotation
                  End Site
                  {
                    OFFSET -2.48547 -0.328903 0.83742
                  }
                }
              }
              JOINT rRing1
              {
                OFFSET -8.82822 0.546677 1.51678
                CHANNELS 3 Zrotation Xrotation Yrotation
                JOINT rRing2
                {
                  OFFSET -2.60934 -0.819778 -0.0198488
                  CHANNELS 3 Zrotation Xrotation Yrotation
                  End Site
                  {
                    OFFSET -2.33842 -0.294052 0.168128
                  }
                }
              }
              JOINT rPinky1
              {
                OFFSET -8.27202 -0.0477905 -0.4584
                CHANNELS 3 Zrotation Xrotation Yrotation
                JOINT rPinky2
                {
                  OFFSET -1.82734 -0.647385 -0.700984
                  CHANNELS 3 Zrotation Xrotation Yrotation
                  End Site
                  {
                    OFFSET -1.69225 -0.51767 -0.607171
                  }
                }
              }
            }
          }
        }
      }
      JOINT lCollar
      {
        OFFSET 2.68224 19.2634 -4.8768
        CHANNELS 3 Zrotation Xrotation Yrotation
        JOINT lShldr
        {
          OFFSET 8.77824 -1.95073 1.46304
          CHANNELS 3 Zrotation Xrotation Yrotation
          JOINT lForeArm
          {
            OFFSET 28.1742 -1.7115 0.48768
            CHANNELS 3 Zrotation Xrotation Yrotation
            JOINT lHand
            {
              OFFSET 22.5879 0.773209 7.07136
              CHANNELS 3 Zrotation Xrotation Yrotation
              JOINT lThumb1
              {
                OFFSET 1.2192 -0.487915 3.41376
                CHANNELS 3 Zrotation Xrotation Yrotation
                JOINT lThumb2
                {
                  OFFSET 3.37035 -0.52449 3.41376
                  CHANNELS 3 Zrotation Xrotation Yrotation
                  End Site
                  {
                    OFFSET 1.78271 -1.18214 1.43049
                  }
                }
              }
              JOINT lIndex1
              {
                OFFSET 7.75947 0.938293 5.60832
                CHANNELS 3 Zrotation Xrotation Yrotation
                JOINT lIndex2
                {
                  OFFSET 2.54057 -0.884171 1.56538
                  CHANNELS 3 Zrotation Xrotation Yrotation
                  End Site
                  {
                    OFFSET 1.62519 -0.234802 1.16502
                  }
                }
              }
              JOINT lMid1
              {
                OFFSET 8.24714 1.18213 3.41376
                CHANNELS 3 Zrotation Xrotation Yrotation
                JOINT lMid2
                {
                  OFFSET 3.10165 -0.590103 1.0647
                  CHANNELS 3 Zrotation Xrotation Yrotation
                  End Site
                  {
                    OFFSET 2.48547 -0.328903 0.83742
                  }
                }
              }
              JOINT lRing1
              {
                OFFSET 8.82822 0.546677 1.51678
                CHANNELS 3 Zrotation Xrotation Yrotation
                JOINT lRing2
                {
                  OFFSET 2.60934 -0.819778 -0.0198488
                  CHANNELS 3 Zrotation Xrotation Yrotation
                  End Site
                  {
                    OFFSET 2.33842 -0.294052 0.168128
                  }
                }
              }
              JOINT lPinky1
              {
                OFFSET 8.27202 -0.0477905 -0.4584
                CHANNELS 3 Zrotation Xrotation Yrotation
                JOINT lPinky2
                {
                  OFFSET 1.82734 -0.647385 -0.700984
                  CHANNELS 3 Zrotation Xrotation Yrotation
                  End Site
                  {
                    OFFSET 1.69225 -0.51767 -0.607171
                  }
                }
              }
            }
          }
        }
      }
    }
  }
  JOINT rButtock
  {
    OFFSET -8.77824 4.35084 1.2192
    CHANNELS 3 Zrotation Xrotation Yrotation
    JOINT rThigh
    {
      OFFSET 0 -1.70687 -2.19456
      CHANNELS 3 Zrotation Xrotation Yrotation
      JOINT rShin
      {
        OFFSET 0 -36.8199 0.73152
        CHANNELS 3 Zrotation Xrotation Yrotation
        JOINT rFoot
        {
          OFFSET 0.73152 -45.1104 -5.12064
          CHANNELS 3 Zrotation Xrotation Yrotation
          End Site
          {
            OFFSET -1.1221 -3.69964 12.103
          }
        }
      }
    }
  }
  JOINT lButtock
  {
    OFFSET 8.77824 4.35084 1.2192
    CHANNELS 3 Zrotation Xrotation Yrotation
    JOINT lThigh
    {
      OFFSET 0 -1.70687 -2.19456
      CHANNELS 3 Zrotation Xrotation Yrotation
      JOINT lShin
      {
        OFFSET 0 -36.8199 0.73152
        CHANNELS 3 Zrotation Xrotation Yrotation
        JOINT lFoot
        {
          OFFSET -0.73152 -45.1104 -5.12064
          CHANNELS 3 Zrotation Xrotation Yrotation
          End Site
          {
            OFFSET 1.1221 -3.69964 12.103
          }
        }
      }
    }
  }
}
MOTION
Frames:	6
Frame Time:	0.03333
0.17950000283235568 73.33449721336365 2.4029999953199876 -1.9034156799316406 -18.656702041625977 4.27780818939209 -2.2986600399017334 10.827814102172852 -3.9066429138183594 5.684262752532959 -7.222250938415527 -0.8744085431098938 -1.5026829242706299 16.023698806762695 3.2610507011413574 5.612040042877197 -30.072481155395508 7.997579097747803 -0.0 0.0 -0.0 -0.0 0.0 -0.0 -0.0 0.0 -0.0 59.769287109375 31.98999786376953 -8.864846229553223 -25.3059024810791 -21.768590927124023 54.05550003051758 -0.9401332139968872 -26.41880226135254 -4.003781318664551 -0.0 0.0 -0.0 -0.0 0.0 -0.0 -0.0 0.0 -0.0 7.73087739944458 5.47489595413208 0.41732463240623474 -0.0 0.0 -0.0 2.9054994583129883 0.9650753736495972 0.10300876200199127 -0.0 0.0 -0.0 10.278595924377441 0.7317469120025635 0.026285577565431595 -0.0 0.0 -0.0 2.221662759780884 -0.7335850596427917 -0.20831839740276337 -0.0 0.0 -0.0 15.35629653930664 26.027299880981445 -100.37300109863281 24.631404876708984 -20.326292037963867 -51.67340087890625 0.042801253497600555 -4.836441516876221 0.6819629073143005 -0.0 0.0 -0.0 -0.0 0.0 -0.0 -0.0 0.0 -0.0 -7.73087739944458 5.47489595413208 -0.41732463240623474 -0.0 0.0 -0.0 -2.9054994583129883 0.9650753736495972 -0.10300876200199127 -0.0 0.0 -0.0 -10.278595924377441 0.7317469120025635 -0.026285577565431595 -0.0 0.0 -0.0 -2.221662759780884 -0.7335850596427917 0.20831839740276337 -0.0 0.0 -0.0 -12.643210411071777 -41.17320251464844 -12.615215301513672 -1.3115248680114746 64.00240325927734 2.052922487258911 -8.773777961730957 -15.010697364807129 -20.363393783569336 -0.0 0.0 -0.0 9.43535327911377 -30.070907592773438 7.900733947753906 0.9497358202934265 60.808692932128906 -2.0931243896484375 12.154289245605469 -21.770402908325195 23.724193572998047
0.12230000384079176 73.19290041923523 2.655999989292468 -1.9499237537384033 -18.84330177307129 4.433417320251465 -2.178980827331543 11.075702667236328 -3.6067404747009277 5.656615257263184 -7.575207233428955 -0.7715436220169067 -1.3256518840789795 15.94669246673584 3.436232328414917 4.923991680145264 -30.3157901763916 8.181180000305176 -0.0 0.0 -0.0 -0.0 0.0 -0.0 -0.0 0.0 -0.0 57.478599548339844 29.849109649658203 -4.947447776794434 -24.742107391357422 -20.553390502929688 52.08439636230469 -0.7362561821937561 -23.924766540527344 -3.569413661956787 -0.0 0.0 -0.0 -0.0 0.0 -0.0 -0.0 0.0 -0.0 7.73087739944458 5.47489595413208 0.41732463240623474 -0.0 0.0 -0.0 2.9054994583129883 0.9650753736495972 0.10300876200199127 -0.0 0.0 -0.0 10.278595924377441 0.7317469120025635 0.026285577565431595 -0.0 0.0 -0.0 2.221662759780884 -0.7335850596427917 -0.20831839740276337 -0.0 0.0 -0.0 14.544605255126953 25.24749755859375 -100.87699890136719 24.991804122924805 -21.079294204711914 -52.95969772338867 0.18139337003231049 -12.068218231201172 1.7158881425857544 -0.0 0.0 -0.0 -0.0 0.0 -0.0 -0.0 0.0 -0.0 -7.73087739944458 5.47489595413208 -0.41732463240623474 -0.0 0.0 -0.0 -2.9054994583129883 0.9650753736495972 -0.10300876200199127 -0.0 0.0 -0.0 -10.278595924377441 0.7317469120025635 -0.026285577565431595 -0.0 0.0 -0.0 -2.221662759780884 -0.7335850596427917 0.20831839740276337 -0.0 0.0 -0.0 -13.0765962600708 -41.29999542236328 -13.314506530761719 -1.309931755065918 64.3890380859375 2.080439567565918 -9.13289737701416 -14.789595603942871 -21.321001052856445 -0.0 0.0 -0.0 9.298850059509277 -30.11069679260254 7.696542739868164 0.9620069861412048 61.06768798828125 -2.1218464374542236 12.465392112731934 -21.885696411132812 24.204099655151367
0.026800004252436338 73.04880023002625 2.930999987802352 -2.09234881401062 -19.006202697753906 4.670736312866211 -2.0186078548431396 11.331999778747559 -3.3315813541412354 5.60933780670166 -7.9618048667907715 -0.6736993789672852 -1.1458299160003662 15.86510944366455 3.6104791164398193 4.270921230316162 -30.531299591064453 8.366329193115234 -0.0 0.0 -0.0 -0.0 0.0 -0.0 -0.0 0.0 -0.0 55.568397521972656 28.112794876098633 -0.964752197265625 -24.295289993286133 -19.659305572509766 50.55750274658203 -0.5648435950279236 -20.853199005126953 -3.068855047225952 -0.0 0.0 -0.0 -0.0 0.0 -0.0 -0.0 0.0 -0.0 7.73087739944458 5.47489595413208 0.41732463240623474 -0.0 0.0 -0.0 2.9054994583129883 0.9650753736495972 0.10300876200199127 -0.0 0.0 -0.0 10.278595924377441 0.7317469120025635 0.026285577565431595 -0.0 0.0 -0.0 2.221662759780884 -0.7335850596427917 -0.20831839740276337 -0.0 0.0 -0.0 13.895708084106445 24.313289642333984 -101.6500015258789 25.53370475769043 -22.292282104492188 -54.911598205566406 0.391451358795166 -17.510292053222656 2.5413753986358643 -0.0 0.0 -0.0 -0.0 0.0 -0.0 -0.0 0.0 -0.0 -7.73087739944458 5.47489595413208 -0.41732463240623474 -0.0 0.0 -0.0 -2.9054994583129883 0.9650753736495972 -0.10300876200199127 -0.0 0.0 -0.0 -10.278595924377441 0.7317469120025635 -0.026285577565431595 -0.0 0.0 -0.0 -2.221662759780884 -0.7335850596427917 0.20831839740276337 -0.0 0.0 -0.0 -13.470707893371582 -41.408294677734375 -14.013910293579102 -1.3202511072158813 64.74993133544922 2.114248752593994 -9.46231746673584 -14.665694236755371 -22.139493942260742 -0.0 0.0 -0.0 9.224838256835938 -30.154695510864258 7.537134647369385 0.976889967918396 61.34988784790039 -2.1531269550323486 12.79551887512207 -21.994800567626953 24.711397171020508
-0.10399999055152875 72.91060090065002 3.238999981476809 -2.157040596008301 -19.225505828857422 4.853600025177002 -1.9428051710128784 11.464509010314941 -3.0709264278411865 5.457630157470703 -7.967319488525391 -0.6081101298332214 -1.0313258171081543 15.773508071899414 3.787327289581299 3.960312604904175 -30.999494552612305 8.664051055908203 -0.0 0.0 -0.0 -0.0 0.0 -0.0 -0.0 0.0 -0.0 53.88469696044922 26.983896255493164 3.5224108695983887 -23.94569969177246 -18.99468231201172 49.45330047607422 -0.3940298855304718 -17.567148208618164 -2.5497028827667236 -0.0 0.0 -0.0 -0.0 0.0 -0.0 -0.0 0.0 -0.0 7.73087739944458 5.47489595413208 0.41732463240623474 -0.0 0.0 -0.0 2.9054994583129883 0.9650753736495972 0.10300876200199127 -0.0 0.0 -0.0 10.278595924377441 0.7317469120025635 0.026285577565431595 -0.0 0.0 -0.0 2.221662759780884 -0.7335850596427917 -0.20831839740276337 -0.0 0.0 -0.0 13.677505493164062 22.701805114746094 -102.63899230957031 26.18899154663086 -23.943300247192383 -57.57480239868164 0.456684947013855 -18.84657859802246 2.7511539459228516 -0.0 0.0 -0.0 -0.0 0.0 -0.0 -0.0 0.0 -0.0 -7.73087739944458 5.47489595413208 -0.41732463240623474 -0.0 0.0 -0.0 -2.9054994583129883 0.9650753736495972 -0.10300876200199127 -0.0 0.0 -0.0 -10.278595924377441 0.7317469120025635 -0.026285577565431595 -0.0 0.0 -0.0 -2.221662759780884 -0.7335850596427917 0.20831839740276337 -0.0 0.0 -0.0 -13.908076286315918 -41.490108489990234 -14.715694427490234 -1.3694974184036255 65.08828735351562 2.171881914138794 -9.75860595703125 -14.725098609924316 -22.73129653930664 -0.0 0.0 -0.0 9.107505798339844 -30.1686954498291 7.404873847961426 0.9903032183647156 61.60968780517578 -2.1844494342803955 13.15688419342041 -22.009401321411133 25.33379554748535
-0.27679999084284646 72.75969982147217 3.579999970315839 -2.2608706951141357 -19.495193481445312 5.147185802459717 -1.8464000225067139 11.527680397033691 -2.790454626083374 5.297549724578857 -7.8804216384887695 -0.5403958559036255 -0.9389428496360779 15.689712524414062 3.964017868041992 3.7508187294006348 -31.49420166015625 8.989416122436523 -0.0 0.0 -0.0 -0.0 0.0 -0.0 -0.0 0.0 -0.0 52.2835807800293 26.46710205078125 8.321045875549316 -23.71300506591797 -18.570688247680664 48.714298248291016 -0.2690272927284241 -14.222355842590332 -2.0432236194610596 -0.0 0.0 -0.0 -0.0 0.0 -0.0 -0.0 0.0 -0.0 7.73087739944458 5.47489595413208 0.41732463240623474 -0.0 0.0 -0.0 2.9054994583129883 0.9650753736495972 0.10300876200199127 -0.0 0.0 -0.0 10.278595924377441 0.7317469120025635 0.026285577565431595 -0.0 0.0 -0.0 2.221662759780884 -0.7335850596427917 -0.20831839740276337 -0.0 0.0 -0.0 13.784615516662598 20.647483825683594 -104.05400085449219 26.873003005981445 -25.922996520996094 -60.75770568847656 0.4732573330402374 -19.17459487915039 2.8013007640838623 -0.0 0.0 -0.0 -0.0 0.0 -0.0 -0.0 0.0 -0.0 -7.73087739944458 5.47489595413208 -0.41732463240623474 -0.0 0.0 -0.0 -2.9054994583129883 0.9650753736495972 -0.10300876200199127 -0.0 0.0 -0.0 -10.278595924377441 0.7317469120025635 -0.026285577565431595 -0.0 0.0 -0.0 -2.221662759780884 -0.7335850596427917 0.20831839740276337 -0.0 0.0 -0.0 -14.195804595947266 -41.58300018310547 -15.243694305419922 -1.4309812784194946 65.36253356933594 2.2304205894470215 -9.925936698913574 -14.78198528289795 -23.042503356933594 -0.0 0.0 -0.0 9.0425443649292 -30.253000259399414 7.306080341339111 1.0122795104980469 61.986881256103516 -2.2242448329925537 13.522276878356934 -21.913803100585938 26.02019691467285
-0.475099987397698 72.605299949646 3.8919999711652054 -2.452996253967285 -19.88661003112793 5.463605880737305 -1.6923096179962158 11.499213218688965 -2.436319589614868 5.19977331161499 -7.87466287612915 -0.440552294254303 -0.8403722047805786 15.653725624084473 4.126707077026367 3.497265100479126 -31.908292770385742 9.2665376663208 -0.0 0.0 -0.0 -0.0 0.0 -0.0 -0.0 0.0 -0.0 50.544403076171875 26.6405029296875 13.335997581481934 -23.601398468017578 -18.369409561157227 48.379493713378906 -0.15556295216083527 -11.170903205871582 -1.590611219406128 -0.0 0.0 -0.0 -0.0 0.0 -0.0 -0.0 0.0 -0.0 7.73087739944458 5.47489595413208 0.41732463240623474 -0.0 0.0 -0.0 2.9054994583129883 0.9650753736495972 0.10300876200199127 -0.0 0.0 -0.0 10.278595924377441 0.7317469120025635 0.026285577565431595 -0.0 0.0 -0.0 2.221662759780884 -0.7335850596427917 -0.20831839740276337 -0.0 0.0 -0.0 14.273106575012207 17.91109275817871 -106.16499328613281 27.515899658203125 -28.255598068237305 -64.4135971069336 0.5835734605789185 -21.17578887939453 3.121199607849121 -0.0 0.0 -0.0 -0.0 0.0 -0.0 -0.0 0.0 -0.0 -7.73087739944458 5.47489595413208 -0.41732463240623474 -0.0 0.0 -0.0 -2.9054994583129883 0.9650753736495972 -0.10300876200199127 -0.0 0.0 -0.0 -10.278595924377441 0.7317469120025635 -0.026285577565431595 -0.0 0.0 -0.0 -2.221662759780884 -0.7335850596427917 0.20831839740276337 -0.0 0.0 -0.0 -14.215302467346191 -41.76169204711914 -15.479001998901367 -1.404799461364746 65.50989532470703 2.2150967121124268 -9.777884483337402 -14.613702774047852 -22.859691619873047 -0.0 0.0 -0.0 9.053692817687988 -30.42109489440918 7.210901737213135 1.0342315435409546 62.41811752319336 -2.271329164505005 14.009020805358887 -21.87469482421875 26.863203048706055
